HIERARCHY
ROOT Hips
{
	OFFSET -0.001795 -0.223333 0.028219
	CHANNELS 6 Xposition Yposition Zposition Zrotation Yrotation Xrotation 
	JOINT LeftUpLeg
	{
		OFFSET 0.069520 -0.091406 -0.006815
		CHANNELS 3 Zrotation Yrotation Xrotation
		JOINT LeftLeg
		{
			OFFSET 0.034277 -0.375199 -0.004496
			CHANNELS 3 Zrotation Yrotation Xrotation
			JOINT LeftFoot
			{
				OFFSET -0.013596 -0.397961 -0.043693
				CHANNELS 3 Zrotation Yrotation Xrotation
				JOINT LeftToe
				{
					OFFSET 0.026358 -0.055791 0.119288
					CHANNELS 3 Zrotation Yrotation Xrotation
					End Site
					{
						OFFSET 0.000000 0.000000 0.000000
					}
				}
			}
		}
	}
	JOINT RightUpLeg
	{
		OFFSET -0.067670 -0.090522 -0.004320
		CHANNELS 3 Zrotation Yrotation Xrotation
		JOINT RightLeg
		{
			OFFSET -0.038290 -0.382569 -0.008850
			CHANNELS 3 Zrotation Yrotation Xrotation
			JOINT RightFoot
			{
				OFFSET 0.015774 -0.398415 -0.042312
				CHANNELS 3 Zrotation Yrotation Xrotation
				JOINT RightToe
				{
					OFFSET -0.025372 -0.048144 0.123348
					CHANNELS 3 Zrotation Yrotation Xrotation
					End Site
					{
						OFFSET 0.000000 0.000000 0.000000
					}
				}
			}
		}
	}
	JOINT Spine
	{
		OFFSET -0.002533 0.108963 -0.026696
		CHANNELS 3 Zrotation Yrotation Xrotation
		JOINT Spine1
		{
			OFFSET 0.005487 0.135180 0.001092
			CHANNELS 3 Zrotation Yrotation Xrotation
			JOINT Spine2
			{
				OFFSET 0.001457 0.052922 0.025425
				CHANNELS 3 Zrotation Yrotation Xrotation
				JOINT Neck
				{
					OFFSET -0.002778 0.213870 -0.042857
					CHANNELS 3 Zrotation Yrotation Xrotation
					JOINT Head
					{
						OFFSET 0.005152 0.064970 0.051349
						CHANNELS 3 Zrotation Yrotation Xrotation
						End Site
						{
							OFFSET 0.000000 0.000000 0.000000
						}
					}
				}
				JOINT LeftShoulder
				{
					OFFSET 0.078845 0.121749 -0.034090
					CHANNELS 3 Zrotation Yrotation Xrotation
					JOINT LeftArm
					{
						OFFSET 0.090977 0.030469 -0.008868
						CHANNELS 3 Zrotation Yrotation Xrotation
						JOINT LeftForeArm
						{
							OFFSET 0.259612 -0.012772 -0.027456
							CHANNELS 3 Zrotation Yrotation Xrotation
							JOINT LeftHand
							{
								OFFSET 0.249234 0.008986 -0.001171
								CHANNELS 3 Zrotation Yrotation Xrotation
								End Site
								{
									OFFSET 0.000000 0.000000 0.000000
								}
							}
						}
					}
				}
				JOINT RightShoulder
				{
					OFFSET -0.081759 0.118833 -0.038615
					CHANNELS 3 Zrotation Yrotation Xrotation
					JOINT RightArm
					{
						OFFSET -0.096012 0.032551 -0.009143
						CHANNELS 3 Zrotation Yrotation Xrotation
						JOINT RightForeArm
						{
							OFFSET -0.253742 -0.013329 -0.021401
							CHANNELS 3 Zrotation Yrotation Xrotation
							JOINT RightHand
							{
								OFFSET -0.255298 0.007772 -0.005559
								CHANNELS 3 Zrotation Yrotation Xrotation
								End Site
								{
									OFFSET 0.000000 0.000000 0.000000
								}
							}
						}
					}
				}
			}
		}
	}
}
MOTION
Frames: 13
Frame Time: 0.050000
0.000000 0.891571 0.000000 1.867316 -7.475840 -15.620158 1.749165 -1.433916 -23.094599 -7.153161 3.129539 36.075082 9.453949 19.016831 -7.414921 0.000000 0.000000 0.000000 -2.290031 -0.026343 0.521326 14.653244 -5.221444 75.363273 -8.016590 -19.591051 3.190928 0.000000 0.000000 0.000000 -5.584287 -0.255807 3.193942 10.780427 -0.003658 -41.467139 -0.126197 5.077017 27.505754 -0.308576 -0.694930 17.972156 0.000000 0.000000 0.000000 21.219882 -18.625760 2.232687 31.408007 -47.201519 -13.211205 68.646684 3.015974 0.206450 0.000000 0.000000 0.000000 -38.740045 14.369307 -0.711669 -41.680330 40.532708 -14.178770 -40.142971 -18.165879 5.689667 0.000000 0.000000 0.000000 
0.010494 0.897399 0.065233 0.054033 -6.496598 -19.121932 4.059283 -1.002430 -26.235644 -5.460119 1.896933 34.563426 6.240431 13.076076 5.477112 0.000000 0.000000 0.000000 -1.526557 0.217139 -2.806083 18.378053 -10.462612 82.541999 -7.233436 -18.455181 15.639707 0.000000 0.000000 0.000000 -4.984780 -0.339931 5.672668 12.354093 1.216158 -50.974606 0.599279 3.663432 36.987608 -0.439981 -0.468621 21.290189 0.000000 0.000000 0.000000 23.123447 -14.670537 0.032477 30.778677 -52.588309 -14.821332 74.325637 7.336880 2.725124 0.000000 0.000000 0.000000 -38.304081 11.984266 -2.375602 -50.601561 41.817795 -17.488409 -32.990431 -23.122158 5.101956 0.000000 0.000000 0.000000 
0.022246 0.901630 0.130588 0.029235 -6.658832 -21.602381 3.573018 -0.979244 -22.730317 -5.430757 1.716469 30.476126 7.645716 15.513958 4.944601 0.000000 0.000000 0.000000 -0.867566 -0.035062 0.410934 18.591945 -10.010049 79.043525 -6.887086 -17.667508 11.257118 0.000000 0.000000 0.000000 -2.346493 -0.311562 6.414275 9.447664 0.672983 -47.284506 1.522328 4.923859 33.977067 -0.938770 0.037708 22.180084 0.000000 0.000000 0.000000 14.585281 -17.042374 2.573539 38.163523 -47.428315 -15.554723 77.115875 2.863205 -2.008652 0.000000 0.000000 0.000000 -35.504001 5.282784 -1.788655 -54.023186 45.503737 -21.834266 -31.997091 -28.302688 6.361460 0.000000 0.000000 0.000000 
0.034672 0.906351 0.195637 0.671496 -5.736499 -22.083180 1.776387 -1.237228 -18.699731 -4.853545 1.162623 23.427735 5.463804 12.437057 10.195299 0.000000 0.000000 0.000000 0.677769 -0.488782 5.547094 15.108290 -6.127997 66.855127 -6.578783 -16.384233 2.775444 0.000000 0.000000 0.000000 -0.643432 -0.197793 4.124662 7.539056 1.091855 -48.805513 0.671610 3.814156 38.841478 0.075437 -0.880809 14.685544 0.000000 0.000000 0.000000 12.865978 -13.880863 1.998900 41.499000 -47.518057 -16.835439 78.995650 5.811031 -0.338316 0.000000 0.000000 0.000000 -32.725771 0.910126 -1.986370 -63.568957 46.181061 -27.825458 -36.739653 -38.127449 9.789745 0.000000 0.000000 0.000000 
0.047882 0.907114 0.261418 1.550731 -5.559783 -20.556033 0.759431 -1.419553 -18.026855 -6.138517 1.560133 21.796375 5.472059 12.752859 12.702605 0.000000 0.000000 0.000000 1.117470 -0.979003 10.714137 10.574283 -2.421999 54.174901 -6.867039 -17.008394 2.526533 0.000000 0.000000 0.000000 -0.468525 0.013694 -1.551722 5.037954 0.428835 -39.708431 3.570802 2.966778 30.855608 -2.640922 2.881341 11.443199 0.000000 0.000000 0.000000 14.119671 -16.086820 2.784174 36.378389 -47.301835 -14.990216 79.401352 7.124447 2.898856 0.000000 0.000000 0.000000 -37.014673 2.599089 -0.401643 -59.062903 48.592570 -28.358190 -46.784708 -44.782632 17.121168 0.000000 0.000000 0.000000 
0.061112 0.901160 0.324429 1.594340 -3.891792 -19.835083 -0.210525 -1.591461 -17.182653 -7.329713 1.944661 23.769782 4.694265 11.516385 11.182346 0.000000 0.000000 0.000000 -0.002198 -1.230348 14.234074 8.552810 -1.623303 50.198223 -7.326992 -18.189334 3.623728 0.000000 0.000000 0.000000 -1.059810 0.089526 -5.037971 4.758533 0.229379 -36.618165 3.250050 2.691696 30.051755 -1.100590 1.288977 -0.641926 0.000000 0.000000 0.000000 18.761766 -14.666853 2.055047 36.450544 -50.217691 -16.968893 77.239143 9.845492 5.489376 0.000000 0.000000 0.000000 -37.183412 1.239083 -0.219792 -60.931351 51.886782 -31.927840 -43.561229 -48.428444 17.569667 0.000000 0.000000 0.000000 
0.073160 0.893222 0.378733 2.457189 -2.938665 -21.132934 -0.545427 -1.698403 -17.329684 -9.211053 3.026874 30.619968 4.564083 10.095677 3.759411 0.000000 0.000000 0.000000 -2.213806 -1.101746 15.562893 6.662882 -0.507812 55.315041 -5.625831 -15.005635 6.366799 0.000000 0.000000 0.000000 -2.131740 0.007082 -6.809655 3.600231 -0.077975 -29.590128 3.980546 1.858154 24.069834 -0.883765 1.206855 -7.341559 0.000000 0.000000 0.000000 23.346258 -15.102172 1.925910 29.813715 -57.084892 -17.286617 71.702343 7.550051 4.783613 0.000000 0.000000 0.000000 -37.509023 4.613370 0.993253 -57.413267 55.819527 -33.660208 -39.827345 -44.535351 15.010420 0.000000 0.000000 0.000000 
0.082757 0.888934 0.420292 2.045996 -0.721468 -21.133051 -1.309282 -1.741705 -15.870508 -9.199984 2.859646 33.092361 5.000714 9.928754 -1.146991 0.000000 0.000000 0.000000 -3.117195 -1.104425 15.482633 7.191332 -1.579596 59.815596 -5.221749 -14.867270 11.379028 0.000000 0.000000 0.000000 -4.645039 -0.319479 -4.962247 5.792406 -0.572113 -29.124955 2.929261 1.979309 23.195111 0.104397 0.728105 -10.474178 0.000000 0.000000 0.000000 22.175397 -17.970849 2.785823 34.518171 -59.905015 -21.760445 59.968527 6.187063 2.806716 0.000000 0.000000 0.000000 -34.936778 7.869821 0.794202 -55.859021 56.479155 -32.385652 -31.289901 -38.980064 9.881825 0.000000 0.000000 0.000000 
0.088544 0.885763 0.448776 1.581905 -0.793045 -21.129437 -0.444071 -1.533345 -15.411927 -9.759504 3.241903 35.736479 4.533504 8.795255 -1.862348 0.000000 0.000000 0.000000 -1.966574 -1.143498 14.184395 8.366693 -2.594793 63.237252 -6.860502 -17.933093 13.232236 0.000000 0.000000 0.000000 -4.218232 -0.270153 -3.525739 5.063331 -0.623659 -26.288609 3.266086 3.407048 20.771163 -0.673908 1.443825 -9.048947 0.000000 0.000000 0.000000 22.356448 -22.607167 3.700738 40.052516 -59.986308 -25.449209 39.368601 6.783646 1.798728 0.000000 0.000000 0.000000 -31.998106 13.164281 0.963197 -55.064426 55.404748 -30.192911 -14.466975 -27.828934 2.696996 0.000000 0.000000 0.000000 
0.091658 0.881470 0.466778 1.121141 -1.779637 -20.105348 -0.397576 -1.551633 -15.921948 -8.356071 2.854307 37.510224 2.760628 5.215699 -1.512703 0.000000 0.000000 0.000000 -1.519195 -0.910395 11.036065 9.871740 -3.441140 63.631045 -7.409585 -18.613997 7.987871 0.000000 0.000000 0.000000 -3.035892 -0.167853 -1.194469 3.996391 -0.543482 -23.719965 2.957185 4.795947 19.315611 0.561868 0.713802 -10.639297 0.000000 0.000000 0.000000 24.481229 -26.978729 4.077824 40.834805 -56.504856 -24.010289 25.610966 6.699951 1.087069 0.000000 0.000000 0.000000 -32.626235 17.589858 0.928382 -53.817721 52.278592 -26.411462 -1.288463 -21.488698 -0.532008 0.000000 0.000000 0.000000 
0.093188 0.887313 0.474699 1.119281 -2.477011 -19.103029 0.081383 -1.486398 -16.328946 -7.887251 2.839888 39.005803 2.368334 4.078418 -2.436973 0.000000 0.000000 0.000000 -2.420361 -0.646174 8.542760 10.038308 -3.154038 61.024914 -8.196016 -20.045952 5.789998 0.000000 0.000000 0.000000 -3.966671 -0.234621 3.285960 3.559087 -0.250131 -26.744964 4.636988 5.228726 23.141452 -0.121493 1.514799 -13.808107 0.000000 0.000000 0.000000 24.860835 -28.875910 3.772597 44.508267 -51.774076 -22.714891 17.076907 3.910332 0.305602 0.000000 0.000000 0.000000 -34.462974 20.370678 0.194274 -54.506144 48.002814 -23.416425 6.443689 -15.877700 -1.609603 0.000000 0.000000 0.000000 
0.094533 0.895337 0.473692 0.049973 -1.903045 -16.992342 0.738491 -1.522819 -18.047212 -5.874050 1.701260 39.687466 0.599395 0.584174 -1.561225 0.000000 0.000000 0.000000 -2.311846 -0.442553 5.526484 8.891142 -2.554527 56.940873 -8.380280 -20.330466 1.140295 0.000000 0.000000 0.000000 -3.935979 -0.213657 8.012450 3.219319 -0.210994 -25.698769 3.879359 4.518164 20.605503 0.566023 1.138071 -16.237031 0.000000 0.000000 0.000000 28.611975 -27.472275 3.048535 46.736754 -51.166338 -23.385517 14.253282 3.777338 0.261691 0.000000 0.000000 0.000000 -38.668369 21.854904 -0.195175 -52.739155 42.471882 -18.857631 11.385483 -14.106427 -2.176747 0.000000 0.000000 0.000000 
0.096511 0.910039 0.465454 0.075349 -2.658138 -13.341916 1.912007 -1.351265 -19.028559 -6.081737 1.809834 36.065225 0.500948 1.363177 0.727138 0.000000 0.000000 0.000000 -2.275539 -0.151758 1.966868 5.411664 -0.077516 51.538082 -7.823308 -19.073617 1.753121 0.000000 0.000000 0.000000 -4.703211 -0.094457 13.275781 3.709671 -0.157743 -28.311165 4.138089 5.351265 22.700313 0.078348 1.964340 -22.495735 0.000000 0.000000 0.000000 29.356760 -26.034741 2.745579 49.778465 -45.294895 -20.966674 13.119064 2.349751 0.103725 0.000000 0.000000 0.000000 -41.104507 21.080138 -1.100888 -54.244652 38.189477 -16.049486 13.775799 -14.113961 -2.570900 0.000000 0.000000 0.000000 
